<svg id="Layer_1" data-name="Layer 1" xmlns="http://www.w3.org/2000/svg" viewBox="0 0 281.95 289.04"><defs><style>.cls-1{fill:#5f66af;}</style></defs><title>cs_logo</title><g id="_815ZkC" data-name="815ZkC"><path class="cls-1" d="M319.74,553.83c-5.23-2.31-7.17.38-9.09,3.94-4,7.45-8.4,14.72-13.13,22.92-3.27-5.62-6.22-10.69-9.16-15.76-1.26-2.16-2.47-4.34-3.73-6.5-3.12-5.33-3.12-5.33-8.94-5.45,2.32-7.3,2.32-7.3-5.47-8.92-50.92-10.58-91.43-54.1-98.88-105.53a129.94,129.94,0,0,1,5.17-60.07c2.16-6.57,1.22-8.19-4.21-9.15-.58-3.09-.49-5.91-1.65-8.07-4.38-8.16-9.16-16.11-14.28-25,10.65,0,20.39.1,30.12-.08,2,0,4.07-1.15,6.8-2,3.4,3.37,5.67,3.29,10-1.23,31.71-33,70.38-46.47,115.52-39.56,28.72,4.39,52.91,18.21,72.77,39.48,4.27,4.58,6.81,4.7,10.12,1.23,2.62.82,4.67,2,6.74,2,9.65.2,19.31.09,29.87.09-1,2-1.7,3.59-2.55,5.06q-5.61,9.74-11.28,19.42c-2.56,4.36-2.58,4.35-.25,8.33-7.24,1.51-8,2.84-5.55,10.18a127.56,127.56,0,0,1-95.25,165C316.51,545.66,316.51,545.66,319.74,553.83ZM419.29,347.3c-6.46,0-11.68-.51-16.77.12-9,1.1-15.07-2.27-21.45-8.93-26.32-27.46-59.15-38.9-96.82-35-30.07,3.12-55,17-75,39.61a11.29,11.29,0,0,1-9.86,4.26c-7.55-.28-15.12-.08-23.79-.08,4.46,7.77,8.2,14.56,12.24,21.18,1.79,2.93,1.75,5.44.92,8.81-2.87,11.73-6.59,23.55-7.24,35.48-2.28,42,14.37,75.74,47.87,101,14.59,11,31.22,17.6,49.28,20.47,3.83.61,6.48,2.09,8.33,5.91,2.94,6.05,6.69,11.7,10.47,18.15,3.57-6.08,7.17-11.29,9.78-17,2.24-4.87,5.75-6.51,10.63-7.35a111.8,111.8,0,0,0,43.71-17.42c45.43-30.38,63.78-86.1,45.19-137.5-1.68-4.65-1.5-8.29,1.35-12.49C412.11,360.73,415.27,354.35,419.29,347.3Z" transform="translate(-156.37 -291.65)"/><path class="cls-1" d="M297.45,494.7c2-3.48,3.89-5.92,4.84-8.69.51-1.47-.15-3.74-1-5.24-8.56-15-17.26-30-25.91-45-.72-1.25-1.32-2.57-2.34-4.57,7.73,0,14.82-.14,21.89.13,1.26.05,2.87,1.57,3.6,2.82q14,23.9,27.73,48a5.25,5.25,0,0,1,0,4.42c-9.34,16.47-18.85,32.84-28.77,50L194.54,358.34H207c14.49,0,29-.08,43.47.14,2,0,4.86,1,5.75,2.55,11.56,19.61,22.84,39.39,34.68,60-8.08,0-15.6.12-23.1-.14-1,0-2.15-1.86-2.86-3.08-5.88-10.05-11.66-20.15-17.5-30.22-5.14-8.84-5.16-8.83-16.47-8.06Z" transform="translate(-156.37 -291.65)"/><path class="cls-1" d="M400.2,358.68c-4,6.87-7.46,13.23-11.39,19.31-.66,1-3.23,1.15-4.92,1.16q-36.48.09-73,0h-7c2.67,9.48,4.12,10.6,13.25,10.59h65.07l-48.67,84.37-30.66-53.08c8.22,0,15.59-.12,22.94.13,1,0,2.15,1.78,2.91,2.93,1.54,2.33,2.87,4.8,4.76,8L346,410.71c-2.4-.11-4.1-.26-5.8-.26-13.17,0-26.33.05-39.5-.17-1.8,0-4.41-1-5.23-2.4-9.36-15.72-18.44-31.61-27.58-47.47a6.65,6.65,0,0,1-.31-1.73Z" transform="translate(-156.37 -291.65)"/><path class="cls-1" d="M276.81,522.28c-60.07-10.07-100.46-76.12-79-136.88,5.46,9.58,11.28,18.26,15.4,27.69,2,4.55.46,10.54,1.11,15.8,3.51,28.2,18,49.12,42.24,63.69a22.73,22.73,0,0,1,7.08,7.16C268.15,506.87,272.19,514.31,276.81,522.28Z" transform="translate(-156.37 -291.65)"/><path class="cls-1" d="M317.76,523c5.75-9.93,10.69-18.74,15.95-27.34.93-1.54,3.15-2.34,4.84-3.36,28.13-16.9,42.31-41.77,43-74.55A22.75,22.75,0,0,1,384.3,408c3.92-7.49,8.34-14.72,13.16-23.09,9.5,30.58,7.24,59.06-7.95,86C373.91,498.69,350,515.54,317.76,523Z" transform="translate(-156.37 -291.65)"/><path class="cls-1" d="M220.25,347.61c41.47-45.75,115.17-44.19,154.24-.1-11.16,0-21.86.05-32.56-.07-1.22,0-2.46-.91-3.63-1.52-27.23-14.27-54.44-14.17-81.68,0a12.25,12.25,0,0,1-5.12,1.63C241.37,347.68,231.24,347.61,220.25,347.61Z" transform="translate(-156.37 -291.65)"/></g></svg>